<svg id="Layer_1" data-name="Layer 1" xmlns="http://www.w3.org/2000/svg" viewBox="0 0 413.48 137.37"><defs><style>.cls-1{font-size:115px;}.cls-1,.cls-7{fill:#009fbc;}.cls-1,.cls-5{font-family:Hastoler, Hastoler;}.cls-2{letter-spacing:0.11em;}.cls-3{letter-spacing:-0.01em;}.cls-4{letter-spacing:-0.02em;}.cls-5{font-size:60px;}.cls-5,.cls-8{fill:#c60;}.cls-6{letter-spacing:-0.01em;}.cls-9{fill:#fff;}</style></defs><title>HangmanSovy_logo</title><text class="cls-1" transform="translate(0 97.82)"><tspan class="cls-2">H </tspan><tspan class="cls-3" x="110.37" y="0">NG</tspan><tspan x="224.03" y="0">M</tspan><tspan class="cls-4" x="304.94" y="0">A</tspan><tspan x="353.12" y="0">N</tspan></text><text class="cls-5" transform="translate(326.66 123.39) rotate(-9.63)"><tspan class="cls-6">O</tspan><tspan x="26.78" y="0">WL</tspan></text><path class="cls-7" d="M200.95,183.23,185,174l-1.59,10.82S173.26,186.41,172.3,195c-.32,2.55-1,10.82,5.73,13.37h2.23a2.2,2.2,0,0,1,0,1.59c-.32,1-12.73,17.82,2.55,36.29,0,0,.64,1.59.32,2.23a25.93,25.93,0,0,0,17.82,6.68Z" transform="translate(-118.53 -154.59)"/><path class="cls-8" d="M180.81,208.38h-2.35s-8.74,2.23-9.41,17.82,6.39,21.64,14.79,22.28c0,0,.5-.8-.5-2.39,0,0-16-15.09-2.64-35.91A2.05,2.05,0,0,0,180.81,208.38Z" transform="translate(-118.53 -154.59)"/><path class="cls-8" d="M194.27,247.84a22,22,0,0,0-5.73-1.27s-1.91,4.14-2.55,6,3.18,6.68,3.18,6.68a2.2,2.2,0,0,0,1.59,0,12.06,12.06,0,0,0,4.14-3.18C195.86,254.85,194.58,248.16,194.27,247.84Z" transform="translate(-118.53 -154.59)"/><path class="cls-7" d="M199.95,183.23,215.86,174l1.59,10.82s10.19,1.59,11.14,10.19c.32,2.55,1,10.82-5.73,13.37h-2.23a2.2,2.2,0,0,0,0,1.59c.32,1,12.73,17.82-2.55,36.29,0,0-.64,1.59-.32,2.23a25.93,25.93,0,0,1-17.82,6.68Z" transform="translate(-118.53 -154.59)"/><path class="cls-8" d="M220.11,208.29h2.35s8.74,2.23,9.41,17.82-6.39,21.64-14.79,22.28c0,0-.5-.8.5-2.39,0,0,16-15.09,2.64-35.91A2.05,2.05,0,0,1,220.11,208.29Z" transform="translate(-118.53 -154.59)"/><path class="cls-8" d="M206.59,247.84a22,22,0,0,1,5.73-1.27s1.91,4.14,2.55,6-3.18,6.68-3.18,6.68a2.2,2.2,0,0,1-1.59,0,12.06,12.06,0,0,1-4.14-3.18C205,254.85,206.27,248.16,206.59,247.84Z" transform="translate(-118.53 -154.59)"/><circle class="cls-9" cx="68.42" cy="43.28" r="10.82"/><circle cx="70.48" cy="43.76" r="6.53"/><circle class="cls-9" cx="72.71" cy="43.76" r="2.71"/><circle class="cls-9" cx="96.11" cy="43.28" r="10.82"/><circle cx="94.04" cy="43.76" r="6.53"/><circle class="cls-9" cx="91.81" cy="43.76" r="2.71"/><polygon class="cls-8" points="77.65 47.73 86.88 47.73 82.26 57.83 77.65 47.73"/><path class="cls-8" d="M181.49,228.43s1.59-1.27,6.37-.64C188.17,228.11,185.31,232.88,181.49,228.43Z" transform="translate(-118.53 -154.59)"/><path class="cls-8" d="M189.13,227.16s1.59-1.27,6.37-.64C195.81,226.84,192.95,231.61,189.13,227.16Z" transform="translate(-118.53 -154.59)"/><path class="cls-8" d="M189.13,233.2s1.59-1.27,6.37-.64C195.81,232.88,192.95,237.66,189.13,233.2Z" transform="translate(-118.53 -154.59)"/><path class="cls-8" d="M181.17,235.11s1.59-1.27,6.37-.64C187.85,234.79,185,239.57,181.17,235.11Z" transform="translate(-118.53 -154.59)"/><path class="cls-8" d="M187.85,239.25s1.59-1.27,6.37-.64C194.54,238.93,191.67,243.71,187.85,239.25Z" transform="translate(-118.53 -154.59)"/><path class="cls-8" d="M197.4,238.61s1.59-1.27,6.37-.64C204.09,238.3,201.22,243.07,197.4,238.61Z" transform="translate(-118.53 -154.59)"/><path class="cls-8" d="M197.4,233.2s1.59-1.27,6.37-.64C204.09,232.88,201.22,237.66,197.4,233.2Z" transform="translate(-118.53 -154.59)"/><path class="cls-8" d="M198.16,226.67s1.77-1,6.39.36C204.81,227.39,201.25,231.66,198.16,226.67Z" transform="translate(-118.53 -154.59)"/><path class="cls-8" d="M206.67,228.24s1.67-1.17,6.39-.25C213.36,228.32,210.22,232.92,206.67,228.24Z" transform="translate(-118.53 -154.59)"/><path class="cls-8" d="M205.4,234.92s1.66-1.18,6.39-.26C212.09,235,208.95,239.6,205.4,234.92Z" transform="translate(-118.53 -154.59)"/><path class="cls-8" d="M212.72,234.92s1.66-1.18,6.39-.26C219.41,235,216.27,239.6,212.72,234.92Z" transform="translate(-118.53 -154.59)"/><path class="cls-8" d="M206.67,240.33s1.66-1.18,6.39-.26C213.36,240.41,210.22,245,206.67,240.33Z" transform="translate(-118.53 -154.59)"/><path class="cls-8" d="M214.31,228.24s1.66-1.18,6.39-.26C221,228.32,217.86,232.91,214.31,228.24Z" transform="translate(-118.53 -154.59)"/></svg>